<?xml version="1.0" standalone="no"?>
<!DOCTYPE svg PUBLIC "-//W3C//DTD SVG 20010904//EN"
 "http://www.w3.org/TR/2001/REC-SVG-20010904/DTD/svg10.dtd">
<svg version="1.0" xmlns="http://www.w3.org/2000/svg"
 width="500.000000pt" height="500.000000pt" viewBox="0 0 500.000000 500.000000"
 preserveAspectRatio="xMidYMid meet">
<metadata>
Created by potrace 1.16, written by Peter Selinger 2001-2019
</metadata>
<g transform="translate(0.000000,500.000000) scale(0.100000,-0.100000)"
fill="#000000" stroke="none">
<path d="M2605 4751 l50 -8 -60 -3 c-59 -3 -58 -3 30 -11 132 -13 136 -18 8
-12 l-113 6 0 -24 c1 -34 38 -280 43 -286 3 -2 19 3 36 11 l31 16 -5 -27 c-7
-42 -13 -143 -8 -143 2 0 15 7 28 16 32 21 31 13 -4 -88 -17 -45 -29 -84 -27
-85 1 -2 16 3 34 9 17 7 34 9 38 6 3 -4 -6 -39 -21 -77 -16 -39 -25 -74 -21
-78 4 -4 21 1 38 11 l31 19 -7 -52 c-4 -28 -10 -59 -13 -68 -7 -17 5 -16 51 2
16 7 17 5 11 -15 -28 -90 -42 -151 -35 -155 5 -3 20 -1 34 5 14 5 26 8 26 5 0
-2 -9 -41 -20 -87 -11 -46 -20 -87 -20 -91 0 -5 13 -6 29 -2 30 6 30 6 20 -27
-5 -18 -9 -51 -9 -73 0 -22 -7 -51 -17 -64 l-16 -24 35 7 c36 7 36 6 32 -26
-2 -18 -12 -58 -23 -88 -10 -30 -22 -70 -26 -88 -7 -36 -6 -36 54 -14 11 4 12
-1 7 -24 -5 -16 -10 -40 -12 -54 -3 -14 -11 -57 -19 -97 -8 -40 -15 -75 -15
-78 0 -3 11 -5 25 -5 27 0 31 -13 15 -56 -6 -14 -14 -44 -19 -64 l-9 -38 33 5
33 5 -40 -83 c-23 -46 -45 -92 -49 -101 -11 -22 -12 -22 39 -4 22 8 42 12 45
10 3 -3 -9 -27 -27 -54 -69 -108 -96 -155 -87 -158 5 -2 26 4 47 13 20 8 39
13 41 11 3 -2 -13 -55 -36 -118 -22 -62 -43 -128 -46 -146 -7 -32 -6 -34 15
-27 20 6 22 5 15 -11 -4 -11 -10 -29 -12 -42 -4 -17 -2 -21 11 -16 9 3 16 1
16 -6 0 -6 -10 -10 -21 -8 -23 3 -24 3 -68 -93 -39 -82 -39 -92 -5 -77 19 9
24 18 21 34 -2 13 0 29 5 36 15 21 -6 -126 -38 -273 -18 -83 -29 -176 -20
-167 4 3 18 57 31 120 33 156 47 208 56 208 4 0 15 -10 23 -22 15 -21 16 -21
18 -3 5 55 7 87 11 163 3 64 9 88 23 100 17 16 17 16 5 0 -10 -14 -8 -19 14
-34 14 -9 28 -15 30 -12 2 2 13 51 24 107 11 57 23 106 26 109 3 3 14 -3 25
-13 25 -23 30 -18 36 36 9 93 29 209 34 209 4 0 19 -13 35 -30 16 -17 33 -30
37 -30 8 0 30 45 73 146 15 35 16 36 29 18 18 -24 21 -21 66 68 20 39 41 73
46 75 6 2 17 -9 24 -24 l13 -28 10 35 c26 95 35 115 42 98 13 -32 23 -19 35
48 l13 67 18 -24 c13 -16 19 -19 19 -9 0 8 5 33 11 55 10 35 13 37 24 22 17
-23 25 -21 26 6 0 12 6 37 13 56 10 29 13 31 25 17 20 -24 31 -10 31 38 0 53
6 59 36 40 23 -16 24 -15 40 25 10 26 23 41 33 41 13 0 21 16 31 65 14 67 22
77 39 48 9 -17 10 -17 17 1 4 10 10 32 14 50 5 24 11 30 27 29 17 -2 22 5 27
39 6 38 8 40 25 24 9 -9 20 -16 23 -16 3 0 13 27 23 60 13 43 22 59 32 56 9
-4 16 5 20 24 6 34 17 38 32 13 12 -20 25 -8 134 117 l47 55 -21 -55 c-11 -30
-36 -81 -55 -113 -19 -32 -34 -60 -34 -62 0 -1 16 -6 35 -9 19 -4 35 -10 35
-14 0 -4 -18 -29 -40 -57 -46 -57 -48 -68 -19 -81 19 -9 18 -13 -31 -58 -28
-26 -50 -49 -48 -51 2 -2 18 -7 37 -12 l34 -9 -61 -44 c-58 -43 -74 -60 -53
-60 5 0 22 -5 37 -10 l27 -11 -43 -44 c-24 -25 -42 -46 -39 -48 2 -2 17 -9 33
-16 l29 -12 -51 -52 c-29 -29 -52 -56 -52 -60 0 -4 11 -7 25 -7 36 0 31 -11
-22 -47 l-46 -32 26 -10 c15 -6 27 -13 27 -15 0 -3 -39 -36 -87 -73 l-87 -68
37 -9 c20 -5 37 -12 37 -15 -1 -6 -39 -34 -142 -104 -32 -22 -55 -43 -52 -48
3 -5 27 -9 55 -9 27 0 49 -4 49 -9 0 -8 -128 -128 -183 -171 -33 -26 -27 -40
19 -40 19 0 34 -4 34 -9 0 -5 -40 -47 -90 -94 -49 -47 -90 -88 -90 -91 0 -3
17 -6 37 -8 l38 -3 -73 -53 c-39 -29 -72 -56 -72 -61 0 -5 11 -12 25 -15 35
-9 31 -19 -17 -44 -24 -12 -71 -40 -106 -60 l-62 -38 37 -10 38 -9 -114 -90
c-63 -49 -133 -107 -155 -128 l-41 -38 38 7 c20 3 37 3 37 -1 0 -4 -34 -46
-76 -92 -76 -83 -96 -128 -29 -63 26 26 35 30 35 17 0 -26 12 -20 42 19 34 46
174 194 182 194 4 0 6 -6 5 -12 -7 -53 2 -52 69 15 37 37 70 67 74 67 3 0 9
-10 12 -23 6 -20 12 -16 71 48 36 39 65 73 65 78 0 20 18 3 24 -23 l6 -31 37
26 c86 57 121 66 106 30 -9 -25 22 -17 48 12 13 14 19 23 12 19 -14 -8 -20 10
-28 96 -8 82 6 130 45 158 54 39 136 18 161 -42 14 -33 15 -112 3 -151 -6 -20
-6 -20 29 1 41 26 47 27 47 6 0 -11 19 -3 65 30 36 25 68 46 70 46 3 0 5 -12
5 -27 1 -27 3 -26 51 27 40 44 52 52 59 40 5 -8 10 -21 10 -27 0 -22 16 -14
68 32 27 25 52 45 55 45 3 0 7 -9 9 -20 3 -18 9 -15 58 25 30 25 58 45 62 45
24 0 -31 -223 -62 -254 -6 -6 -10 -20 -10 -33 0 -13 -10 -29 -25 -39 -19 -12
-23 -22 -19 -40 5 -19 1 -26 -19 -33 -27 -11 -53 -47 -49 -69 2 -6 -1 -12 -7
-12 -5 0 -26 -30 -46 -66 -95 -170 -348 -454 -520 -586 -142 -108 -428 -268
-479 -268 -16 0 -17 -3 -8 -12 19 -19 15 -27 -24 -43 -27 -11 -46 -13 -69 -6
-18 5 -39 5 -47 0 -58 -33 -405 -99 -517 -99 -44 0 -49 -3 -55 -25 -6 -23 -11
-25 -67 -25 -52 0 -61 3 -68 21 -7 19 -17 22 -87 26 -124 6 -295 31 -417 62
-95 23 -180 31 -222 21 -5 -1 -18 -2 -28 -1 -18 1 -18 2 1 28 l19 27 -76 26
c-362 128 -726 430 -953 795 -66 106 -140 254 -132 266 3 5 2 9 -3 9 -4 0 -15
4 -23 10 -12 7 -12 12 4 28 20 23 18 24 -47 42 -38 10 -45 15 -33 22 22 12 20
23 -7 35 -18 9 -29 31 -51 103 -15 50 -26 95 -24 101 2 5 26 -7 55 -26 50 -33
52 -34 55 -13 5 34 20 31 72 -12 52 -43 66 -48 66 -25 0 18 12 19 28 3 9 -9
12 9 12 83 l0 96 -140 6 c-77 3 -145 9 -151 13 -26 16 24 24 156 24 77 0 147
5 155 10 13 8 13 10 -1 10 -31 0 -38 57 -17 133 11 41 10 45 -25 96 -45 65
-49 120 -14 172 39 58 138 76 182 33 13 -14 26 -5 119 86 58 57 102 107 100
115 -3 7 5 15 18 18 22 6 22 7 5 24 -12 12 -33 18 -70 18 -64 0 -103 23 -124
72 -18 45 -10 97 20 127 l22 21 -30 20 c-25 17 -31 28 -33 67 -2 33 -10 52
-27 68 -24 23 -25 28 -25 154 0 127 1 130 27 158 14 15 24 30 22 33 -3 2 -22
-13 -43 -34 l-38 -39 1 -309 2 -308 24 -20 c13 -11 27 -32 31 -47 5 -22 0 -34
-25 -59 -25 -25 -37 -30 -59 -25 -65 16 -82 87 -32 129 l30 26 0 313 0 314 49
48 49 48 -15 35 c-18 44 -13 50 17 18 l24 -25 33 32 c20 19 33 42 34 57 0 15
4 35 8 46 7 16 10 12 15 -22 9 -48 -1 -70 -45 -107 -17 -15 -29 -30 -25 -33 4
-4 29 15 56 42 41 41 50 55 50 85 0 19 3 53 7 75 5 31 8 35 14 20 4 -11 8 -45
8 -75 0 -53 -2 -57 -54 -114 -30 -33 -52 -63 -49 -67 2 -4 35 25 72 64 129
138 140 149 151 142 7 -4 10 -1 9 7 -2 10 28 13 146 13 l149 0 82 -82 c66 -67
88 -83 112 -83 38 0 63 -27 63 -68 0 -40 -23 -62 -64 -62 -53 0 -84 56 -56
100 7 12 -9 34 -73 98 l-82 82 -131 0 -132 0 -106 -111 c-58 -61 -106 -119
-106 -128 0 -10 7 -25 16 -32 13 -11 17 -10 25 4 15 25 27 21 31 -10 2 -18 8
-27 18 -26 10 2 20 -16 33 -57 9 -33 21 -60 25 -60 4 0 5 46 4 101 l-4 101 64
65 63 64 56 -3 c42 -2 55 0 52 10 -16 39 78 59 110 24 39 -42 5 -112 -53 -112
-21 0 -36 8 -52 30 -17 24 -29 30 -58 30 -30 0 -44 -9 -94 -59 l-58 -59 4 -97
c4 -92 6 -99 32 -122 15 -13 32 -40 38 -60 l10 -36 107 107 106 106 304 0
c168 0 302 -2 300 -5 -3 -2 -77 -5 -164 -6 -225 -3 -275 -8 -275 -25 0 -11 26
-14 138 -15 148 0 334 -9 341 -15 2 -2 -133 -4 -300 -4 l-304 0 -98 -98 c-92
-93 -97 -99 -91 -130 5 -23 11 -31 21 -28 10 4 19 -4 26 -24 6 -16 14 -30 17
-30 3 0 32 27 65 60 l59 60 149 0 c147 0 149 0 169 25 34 43 116 27 119 -23 4
-59 -15 -82 -67 -82 -23 0 -38 8 -52 25 -20 25 -22 25 -164 25 l-144 0 -42
-43 c-39 -40 -42 -46 -32 -71 5 -15 10 -41 10 -57 0 -16 5 -29 10 -29 6 0 10
4 10 8 0 5 23 27 51 50 l52 42 328 0 c213 0 329 -4 329 -10 0 -6 -44 -10 -113
-10 l-114 0 38 -41 c20 -22 42 -53 49 -68 15 -37 40 -48 121 -56 l65 -6 -18
88 c-10 48 -18 100 -18 114 0 24 -4 27 -32 25 l-33 -1 0 100 0 100 25 0 c24 0
25 -2 28 -83 3 -78 4 -83 28 -92 14 -6 27 -10 30 -10 10 0 2 51 -21 139 -14
52 -24 95 -22 97 2 2 18 0 35 -5 38 -11 45 -3 27 31 -7 15 -18 50 -24 78 -6
28 -16 60 -21 71 -13 24 1 25 35 3 32 -21 33 -10 5 78 -28 91 -27 106 10 100
36 -5 37 -1 10 92 -11 38 -18 71 -16 74 2 2 16 -4 30 -13 25 -17 26 -17 26 6
-1 13 -5 43 -9 66 -5 23 -6 45 -3 47 3 3 18 -2 33 -11 16 -9 31 -15 34 -12 3
3 -6 39 -20 79 -14 40 -23 75 -20 78 2 2 18 0 34 -6 39 -14 39 -8 2 97 -16 44
-26 81 -22 81 4 0 17 -7 30 -16 l23 -16 -4 81 c-2 45 1 81 5 81 5 0 17 -5 29
-11 11 -6 22 -9 24 -6 4 4 44 269 44 295 0 11 -18 13 -90 7 -94 -7 -121 -13
-305 -64 -200 -55 -466 -153 -506 -187 -8 -8 -21 -14 -28 -14 -13 0 -58 -27
-79 -47 -7 -7 -19 -13 -26 -13 -17 0 -156 -90 -156 -100 0 -5 -10 -12 -22 -16
-30 -9 -145 -100 -159 -125 -5 -10 -14 -19 -20 -19 -19 0 -229 -222 -300 -317
-94 -124 -208 -318 -216 -366 -3 -21 -16 -51 -28 -65 -35 -42 -65 -120 -76
-197 -10 -75 -27 -141 -28 -112 -2 37 -18 14 -34 -50 -9 -38 -20 -79 -23 -92
-7 -23 -7 -23 19 -6 l26 17 -10 -36 c-18 -66 32 -104 68 -50 12 18 11 24 -7
47 -29 37 -4 49 27 13 30 -35 29 -61 -2 -91 -30 -30 -64 -32 -99 -4 -31 24
-36 8 -9 -31 22 -32 33 -39 50 -33 19 8 42 -26 43 -62 0 -45 -26 -78 -57 -70
-19 4 -31 -2 -60 -35 -20 -22 -42 -40 -50 -40 -10 0 -13 -19 -13 -75 0 -57 3
-75 14 -75 16 0 26 -32 19 -61 -4 -16 -8 -17 -14 -7 -6 8 -9 -1 -9 -26 0 -22
-3 -36 -7 -32 -4 4 -10 105 -13 224 l-6 217 -4 -175 c-4 -169 -4 -172 -10 -70
l-6 105 -2 -100 c-3 -136 25 -423 49 -520 12 -44 21 -87 21 -95 0 -16 39 -145
68 -225 11 -27 24 -69 30 -92 6 -23 14 -45 19 -47 5 -3 12 -18 16 -33 3 -16
16 -44 28 -63 12 -19 22 -41 23 -48 2 -8 9 -21 17 -30 8 -10 22 -33 31 -52 22
-48 48 -90 68 -114 10 -11 18 -23 18 -27 0 -3 13 -24 30 -45 16 -22 33 -43 37
-49 113 -146 389 -425 422 -425 6 0 14 -6 18 -13 4 -7 35 -30 68 -52 33 -22
70 -48 82 -59 13 -11 23 -16 23 -12 0 4 15 -4 33 -18 19 -15 38 -26 43 -26 5
0 26 -11 46 -25 20 -14 42 -25 48 -25 6 0 28 -11 50 -25 22 -14 45 -25 51 -25
6 0 37 -11 68 -24 114 -49 291 -106 345 -111 17 -2 76 -13 131 -26 93 -21 124
-23 425 -23 304 0 332 1 430 23 58 13 119 25 135 26 17 2 57 13 89 24 33 12
67 21 78 21 10 0 38 9 61 20 24 11 52 22 63 24 12 2 38 14 60 25 21 12 44 21
50 21 21 0 287 142 319 170 11 9 35 25 53 36 17 10 32 22 32 26 0 4 5 8 12 8
7 0 24 12 39 26 l27 26 7 -117 c4 -65 6 -191 3 -281 l-4 -164 43 0 c40 0 44
-2 50 -30 l6 -30 101 0 102 0 97 73 c109 83 211 173 300 266 34 35 79 82 100
103 20 22 37 43 37 48 0 5 8 15 19 22 25 18 76 113 91 171 15 56 2 94 -37 103
-26 7 -31 29 -8 38 26 10 16 22 -27 35 -24 7 -57 17 -74 22 -17 5 -44 9 -61 9
-17 0 -33 5 -35 11 -4 11 -135 48 -170 49 -10 0 -18 4 -18 9 0 5 -22 17 -49
26 -60 20 -78 37 -56 55 8 7 15 18 15 25 0 8 4 15 9 17 7 3 38 46 76 107 6 9
19 29 30 46 11 16 20 35 21 43 2 7 10 25 20 40 24 37 74 132 74 142 0 4 10 29
22 56 12 27 21 53 20 57 -1 4 7 27 18 50 12 23 25 60 30 82 4 22 17 63 28 92
11 28 18 54 15 56 -2 3 6 42 17 88 28 109 49 327 49 509 0 256 -29 474 -90
667 -10 34 -19 69 -19 78 0 9 -9 33 -20 54 -10 21 -21 49 -24 62 -8 42 -91
220 -125 268 -12 17 -19 31 -15 31 3 0 -5 15 -20 34 -14 19 -26 40 -26 46 0 6
-11 23 -25 38 -14 15 -25 32 -25 38 0 6 -11 21 -25 34 -13 12 -22 26 -19 31 2
4 -1 11 -8 16 -7 4 -33 35 -58 67 -58 77 -232 256 -248 256 -6 0 -12 4 -12 9
0 6 -37 39 -82 75 -46 36 -88 70 -94 75 -25 21 -129 87 -199 127 -80 45 -274
138 -290 139 -5 0 -28 8 -49 18 -22 10 -51 20 -65 23 -14 3 -56 17 -93 31 -37
13 -71 22 -76 19 -5 -3 -36 4 -70 14 -34 11 -120 26 -190 34 -140 16 -361 30
-277 17z m656 -1037 c16 -15 29 -33 29 -40 0 -7 12 -14 27 -16 37 -4 40 -25 4
-33 -20 -4 -31 -13 -31 -24 0 -9 -14 -30 -31 -47 -25 -24 -39 -29 -80 -29 -44
0 -54 4 -80 33 -31 35 -39 94 -18 133 33 62 127 74 180 23z m-27 -425 c13 -6
32 -26 42 -45 13 -25 26 -34 49 -36 36 -4 36 -22 0 -26 -18 -2 -29 -13 -39
-36 -8 -19 -19 -37 -25 -40 -21 -13 -11 -25 25 -28 l37 -3 -48 -34 c-41 -29
-56 -34 -105 -35 -50 0 -65 5 -108 34 l-50 35 44 3 c49 3 52 7 28 34 -10 10
-19 40 -22 68 -4 46 -2 52 31 85 28 28 42 35 76 35 22 0 51 -5 65 -11z m-2694
-467 l3 -193 -56 -57 c-63 -64 -69 -87 -32 -122 35 -33 31 -85 -7 -113 -34
-25 -70 -16 -101 25 -17 23 -18 30 -7 57 7 17 21 33 31 36 13 4 19 16 19 37 0
23 14 44 60 92 l60 63 0 285 c0 156 3 288 8 292 9 10 19 -158 22 -402z m3625
-518 c61 -40 51 -147 -18 -180 -60 -29 -119 -6 -151 58 -6 13 -20 24 -31 26
-37 7 -40 22 -6 28 22 5 37 16 47 36 28 55 102 70 159 32z"/>
<path d="M787 3532 c-14 -15 -17 -41 -17 -134 0 -107 2 -116 23 -136 16 -15
36 -22 63 -22 l39 0 -44 40 c-41 38 -43 42 -38 82 4 32 1 48 -14 69 l-19 27
40 7 40 7 -23 39 c-25 44 -28 46 -50 21z"/>
<path d="M1536 2861 c-10 -11 -16 -28 -13 -38 3 -10 8 -31 11 -46 6 -25 9 -27
23 -15 13 10 17 10 20 1 4 -10 72 -13 295 -13 l290 0 -7 33 c-4 17 -13 47 -21
65 l-13 32 -284 0 c-268 0 -285 -1 -301 -19z"/>
<path d="M915 2673 c-55 -58 -100 -109 -99 -112 0 -3 4 -23 8 -44 6 -29 4 -43
-10 -65 -19 -29 106 81 194 170 52 54 53 54 32 73 -26 23 -25 35 1 35 24 0 21
18 -7 36 -18 13 -28 5 -119 -93z"/>
<path d="M1594 2698 c9 -46 24 -58 42 -34 13 18 15 19 27 3 10 -14 41 -17 245
-19 252 -3 246 -5 217 52 l-16 30 -261 0 -260 0 6 -32z"/>
<path d="M1690 2612 c0 -5 8 -16 18 -25 16 -15 48 -17 245 -17 125 0 227 3
227 6 0 3 -5 14 -10 25 -10 18 -24 19 -245 19 -129 0 -235 -4 -235 -8z"/>
<path d="M1790 2532 c1 -10 9 -32 18 -50 18 -33 18 -33 37 -12 26 29 78 27
103 -5 19 -24 25 -25 122 -25 114 0 111 -3 65 70 l-26 41 -159 -2 c-142 -1
-160 -3 -160 -17z"/>
<path d="M1015 2340 c-86 -89 -155 -164 -152 -167 11 -10 -14 -44 -46 -63 -52
-32 -146 -21 -148 17 -3 47 -18 -72 -18 -148 -1 -102 12 -125 50 -90 13 12 33
21 45 21 l23 0 -24 26 c-50 53 -18 134 52 134 27 0 59 27 233 197 l201 197
-23 18 c-13 10 -26 18 -29 18 -3 0 -77 -72 -164 -160z"/>
<path d="M1956 2395 c-5 -14 6 -129 20 -198 6 -27 7 -28 30 -13 13 9 25 16 28
16 3 0 10 -27 17 -60 l12 -61 83 2 82 2 -49 140 c-27 77 -49 144 -49 148 0 5
19 2 41 -6 57 -21 60 -19 41 15 l-17 30 -116 0 c-96 0 -118 -3 -123 -15z"/>
<path d="M1024 2214 c-153 -160 -159 -168 -156 -204 2 -28 -3 -45 -23 -69 -25
-29 -25 -31 -7 -31 27 0 85 -67 79 -91 -6 -21 9 -27 68 -28 38 -1 46 5 138 97
l97 97 0 120 0 121 35 34 c19 18 32 37 28 43 -3 5 -41 -26 -84 -69 -70 -70
-79 -83 -79 -116 0 -66 -78 -94 -119 -42 -28 35 -26 65 4 94 19 18 32 22 58
17 32 -5 39 0 111 72 l76 77 -29 22 c-17 12 -32 22 -34 22 -3 0 -76 -75 -163
-166z"/>
<path d="M1283 2240 l-33 -30 0 -122 0 -123 -107 -107 -106 -106 49 -32 49
-31 6 23 c3 13 12 21 20 19 20 -5 30 -5 59 3 19 5 36 0 63 -18 36 -24 46 -26
160 -26 l121 0 57 -56 56 -55 57 3 57 3 -58 45 -57 44 32 10 c18 5 32 12 32
15 0 3 -40 27 -88 53 -48 26 -96 53 -106 61 -19 14 -18 15 12 22 18 3 32 10
32 15 0 5 -33 32 -72 62 l-73 53 38 5 38 5 -91 90 c-49 49 -90 93 -90 97 0 5
15 8 33 8 19 0 36 3 40 6 6 6 -81 93 -93 93 -3 0 -20 -13 -37 -29z"/>
<path d="M2153 1915 c3 -47 9 -90 12 -95 10 -17 75 -12 75 5 0 18 12 19 28 3
25 -25 24 4 -3 64 -42 97 -51 108 -87 108 l-31 0 6 -85z"/>
</g>
</svg>
